<svg width="376" height="275" viewBox="0 0 376 275" fill="none" xmlns="http://www.w3.org/2000/svg">
<g clip-path="url(#clip0_2892_7327)">
<path d="M103.052 146.904V139.787V127.08V104.968V89.9723V67.8605H71.9084H27.5987C21.7751 67.8605 16.7111 72.1812 16.2047 77.7727C15.6983 84.3808 20.7623 89.9723 27.0923 89.9723H64.0593C67.6041 89.9723 70.8956 92.5139 71.6552 96.0721C72.668 100.901 68.8701 104.968 64.3125 104.968H46.5886C40.765 104.968 35.701 109.288 35.1946 114.88C34.6882 121.488 39.7522 127.08 46.0822 127.08H65.0721C68.3637 127.08 71.402 129.367 71.6552 132.671C71.9084 136.483 69.1233 139.533 65.3253 139.533H46.3354C40.5118 139.533 35.4478 143.854 34.9414 149.446C34.435 156.054 39.499 161.645 45.829 161.645H71.6552H77.9852C82.0364 161.645 85.328 164.949 85.328 169.016C85.328 173.082 82.0364 176.386 77.9852 176.386H11.394C5.5704 176.386 0.506428 180.707 3.02586e-05 186.299C-0.506367 192.907 4.55761 198.498 10.8876 198.498H127.612C131.157 198.498 134.449 200.786 134.955 204.344C135.968 208.919 132.423 212.985 127.865 212.985H83.3024C77.4788 212.985 72.4148 217.306 71.9084 222.897C71.402 229.506 76.466 235.097 82.796 235.097H170.909V223.914V212.731V197.99V175.878V146.904H103.052Z" fill="#88CC22" fill-opacity="0.3"/>
<path d="M189.139 163.17H171.162V275.254H189.139V163.17Z" fill="#A3E635"/>
<path d="M180.024 275V198.752C180.024 195.702 182.556 192.907 185.848 192.907H189.139V163.17H171.162V275.254H180.024V275Z" fill="#88CC22"/>
<path d="M263.327 157.579V42.9529H133.689C104.065 42.9529 80.0107 67.098 80.0107 96.8346V150.97C80.0107 153.512 80.7703 155.545 82.0363 157.579H263.327Z" fill="#84BF2C"/>
<path d="M81.2767 84.8892C80.5171 88.7015 80.0107 92.7681 80.0107 96.8346V150.97C80.0107 157.579 85.3279 163.17 92.1643 163.17H263.327V84.8892H81.2767Z" fill="#A6DB50"/>
<path d="M263.327 157.07V132.925H80.0107V150.97C80.0107 153.258 80.7703 155.291 81.7831 157.07H263.327Z" fill="#BEF264"/>
<path d="M317.005 157.07H209.648V93.0222C209.648 65.3189 231.93 42.9529 259.529 42.9529H267.125C294.723 42.9529 317.005 65.3189 317.005 93.0222V157.07Z" fill="#3F6212"/>
<path d="M371.189 153.258H263.327H80.2639C81.2767 158.849 86.3407 162.916 92.1643 162.916H263.327H371.189C373.974 162.916 376 160.628 376 158.087C376 155.545 373.721 153.258 371.189 153.258Z" fill="#84BF2C"/>
<path d="M325.107 44.2237C328.743 44.2237 331.69 41.2652 331.69 37.6156C331.69 33.966 328.743 31.0074 325.107 31.0074C321.471 31.0074 318.524 33.966 318.524 37.6156C318.524 41.2652 321.471 44.2237 325.107 44.2237Z" stroke="#A6DB50" stroke-width="1.5" stroke-miterlimit="10" stroke-linecap="round" stroke-linejoin="round"/>
<path d="M96.7218 11.6913V27.195" stroke="#A6DB50" stroke-width="1.5" stroke-miterlimit="10" stroke-linecap="round" stroke-linejoin="round"/>
<path d="M104.318 19.316H88.8727" stroke="#A6DB50" stroke-width="1.5" stroke-miterlimit="10" stroke-linecap="round" stroke-linejoin="round"/>
<path d="M263.327 185.282V200.786" stroke="#A6DB50" stroke-width="1.5" stroke-miterlimit="10" stroke-linecap="round" stroke-linejoin="round"/>
<path d="M270.923 192.907H255.477" stroke="#A6DB50" stroke-width="1.5" stroke-miterlimit="10" stroke-linecap="round" stroke-linejoin="round"/>
<path d="M361.568 85.1433H270.923V138.771H361.568V85.1433Z" fill="#A3E635"/>
<path d="M361.821 139.025L316.498 103.951L270.923 139.025H361.821Z" fill="#88CC22"/>
<path d="M270.923 85.1433L311.941 116.659C314.473 118.692 318.018 118.692 320.55 116.659L361.568 85.1433H270.923Z" fill="#BEF264"/>
<path d="M197.495 72.1812H122.548C119.51 72.1812 117.231 69.6396 117.231 66.8438V66.0814C117.231 63.0315 119.763 60.744 122.548 60.744H197.495C200.533 60.744 202.812 63.2856 202.812 66.0814V66.8438C203.065 69.8937 200.533 72.1812 197.495 72.1812Z" fill="#DBF0BD"/>
<path d="M174.96 99.1219C168.124 99.1219 162.554 104.713 162.554 111.576C162.554 118.438 168.124 124.03 174.96 124.03C181.797 124.03 187.367 118.438 187.367 111.576C187.62 104.713 182.05 99.1219 174.96 99.1219Z" fill="#88CC22"/>
<path d="M174.96 111.83C173.441 111.83 172.175 110.559 172.175 109.034V2.79575C172.175 1.27079 173.441 0 174.96 0C176.479 0 177.745 1.27079 177.745 2.79575V109.034C177.745 110.559 176.479 111.83 174.96 111.83Z" fill="#3F6212"/>
<path d="M144.323 27.195H172.175V7.11646H144.323C142.298 7.11646 140.778 8.64141 140.778 10.6747V23.6368C140.778 25.4159 142.298 27.195 144.323 27.195Z" fill="#A6DB50"/>
</g>
<defs>
<clipPath id="clip0_2892_7327">
<rect width="376" height="275" fill="white"/>
</clipPath>
</defs>
</svg>
