<svg width="344" height="210" viewBox="0 0 344 210" fill="none" xmlns="http://www.w3.org/2000/svg">
<path d="M77.3633 209.304L86.8441 197.895H304.582L314.063 209.304H77.3633Z" fill="#A3E635"/>
<path d="M311.01 208.019H80.5771L87.969 199.181H303.618L311.01 208.019Z" fill="#3F6212"/>
<path opacity="0.6" d="M303.618 199.181H87.9692V208.179H303.618V199.181Z" fill="#1F1E21"/>
<path d="M341.381 112.728L263.766 201.109L257.499 208.179H127.499L119.465 201.109L107.574 190.664L103.556 187.129L103.396 186.968C103.396 186.968 103.396 186.968 103.235 186.807C103.074 186.647 102.914 186.486 102.753 186.325C102.592 186.165 102.431 185.843 102.271 185.682C102.271 185.682 102.271 185.522 102.11 185.522C101.949 185.361 101.789 185.2 101.789 184.879C101.628 184.718 101.628 184.397 101.467 184.236C101.467 184.076 101.307 183.915 101.307 183.754C101.307 183.593 101.146 183.433 101.146 183.272C100.342 180.54 100.825 177.487 102.914 175.237L237.895 21.6157C238.056 21.455 238.377 21.1336 238.538 20.9729C239.502 20.1695 240.466 19.5267 241.591 19.2053C243.519 18.5626 245.608 18.7233 247.537 19.5267C248.019 19.6874 248.34 20.0088 248.822 20.1695C249.143 20.3302 249.465 20.4909 249.626 20.8123L253.643 24.3475L340.577 100.837L340.738 100.998C340.899 101.158 341.22 101.48 341.381 101.64C341.541 101.801 341.702 102.123 341.863 102.283C342.024 102.444 342.184 102.765 342.345 102.926C342.506 103.247 342.666 103.569 342.827 103.89C342.988 104.372 343.148 104.694 343.309 105.176C343.791 107.907 343.148 110.639 341.381 112.728Z" fill="#A3E635"/>
<path d="M341.381 112.728L263.766 201.109L257.499 208.179H190.973L190.491 201.109L189.527 185.361L189.205 181.344L186.313 136.189C185.509 122.37 195.954 110.478 209.613 109.675L254.768 106.783L258.785 106.461L340.738 101.158C340.899 101.319 341.22 101.64 341.381 101.801C341.541 101.962 341.702 102.283 341.863 102.444C342.023 102.605 342.184 102.926 342.345 103.087C342.506 103.408 342.666 103.729 342.827 104.051C342.988 104.533 343.148 104.854 343.309 105.336C343.791 107.907 343.148 110.639 341.381 112.728Z" fill="#88CC22"/>
<path opacity="0.2" d="M249.626 20.8122C246.09 17.7591 240.948 18.0805 237.895 21.6157L102.753 175.237C99.6998 178.773 100.021 183.915 103.556 186.968L107.574 190.503L236.449 182.308C251.393 181.344 262.802 168.488 261.838 153.383L253.643 24.5082L249.626 20.8122Z" fill="#869D5E"/>
<path d="M237.734 21.6157L102.592 175.237C99.6996 178.612 99.8603 183.754 103.074 186.807L234.199 178.451C248.019 177.487 258.463 165.757 257.499 151.937L249.143 20.8123C245.769 17.9198 240.787 18.2412 237.734 21.6157Z" fill="#BEF264"/>
<path d="M241.269 27.0792L146.622 134.743C145.818 135.707 144.533 135.707 143.569 134.904C142.604 134.1 142.604 132.815 143.408 131.85L238.056 24.1867C238.859 23.2226 240.145 23.2226 241.109 24.026C242.073 24.8295 242.073 26.115 241.269 27.0792Z" fill="#A3E635"/>
<path opacity="0.6" d="M263.606 200.948L257.339 208.019H127.499L119.465 200.948H263.606Z" fill="#0A0D06"/>
<path d="M146.782 112.889L148.068 83.1606C155.138 78.822 161.244 72.3943 165.101 64.199C175.546 42.0234 166.065 15.5092 143.89 5.06424C121.714 -5.22006 95.1999 4.26077 84.7549 26.4363C74.3099 48.6118 83.7908 75.126 105.966 85.571C111.269 88.1421 116.733 89.4276 122.196 89.749L144.05 113.853C145.015 114.817 146.782 114.174 146.782 112.889Z" fill="#BD6805"/>
<path d="M167.19 90.2313H12.2829C5.5338 90.2313 0.230957 84.7678 0.230957 78.1794V12.2956C0.230957 5.5465 5.69449 0.243652 12.2829 0.243652H167.029C173.779 0.243652 179.081 5.70719 179.081 12.2956V78.0187C179.242 84.7678 173.779 90.2313 167.19 90.2313Z" fill="#D97706"/>
<path opacity="0.4" d="M177.635 6.51065C175.868 5.54649 173.939 5.06442 171.85 5.06442H17.1036C10.3546 5.06442 5.05172 10.528 5.05172 17.1163V82.8394C5.05172 84.9284 5.5338 87.0174 6.49795 88.6244C2.80203 86.5354 0.230957 82.6788 0.230957 78.0187V12.2956C0.230957 5.70719 5.69449 0.243652 12.2829 0.243652H167.029C171.69 0.243652 175.707 2.81473 177.635 6.51065Z" fill="#F1F5F8"/>
<path d="M52.3382 19.4809C56.8855 19.4809 60.1638 20.5384 62.1731 22.6534C64.2352 24.7684 65.2663 27.9674 65.2663 32.2503V34.2331C65.2663 37.0884 64.8168 39.4413 63.9179 41.292C63.0191 43.1426 61.5914 44.5174 59.635 45.4162C62.0144 46.3151 63.68 47.7956 64.6318 49.8578C65.6364 51.867 66.1387 54.3522 66.1387 57.3132V61.834C66.1387 66.1169 65.0283 69.3952 62.8076 71.6689C60.5868 73.8896 57.2821 75 52.8934 75H39.1723V19.4809H52.3382ZM47.8967 50.0164V67.0687H52.8934C54.3739 67.0687 55.4843 66.6721 56.2246 65.879C57.0177 65.0859 57.4143 63.6582 57.4143 61.5961V56.758C57.4143 54.1671 56.9648 52.3958 56.066 51.444C55.2199 50.4923 53.7923 50.0164 51.783 50.0164H47.8967ZM47.8967 27.4122V42.0851H51.3072C52.9463 42.0851 54.2153 41.6621 55.1142 40.8161C56.066 39.9701 56.5418 38.4367 56.5418 36.2159V33.1227C56.5418 31.1135 56.1717 29.6594 55.4314 28.7605C54.7441 27.8616 53.6337 27.4122 52.1003 27.4122H47.8967ZM78.4006 56.5994L67.3761 19.4809H76.4971L83.1594 44.7817L89.8217 19.4809H98.1496L87.1251 56.5994V75H78.4006V56.5994ZM110.402 42.8782H122.378V50.8095H110.402V67.0687H125.472V75H101.678V19.4809H125.472V27.4122H110.402V42.8782ZM131.988 62.7065L130.878 42.6403V19.4809H139.602V42.6403L138.492 62.7065H131.988ZM139.444 66.5928V75H131.037V66.5928H139.444Z" fill="#F1F5F8"/>
</svg>
