<svg width="344" height="210" viewBox="0 0 344 210" fill="none" xmlns="http://www.w3.org/2000/svg">
<path d="M77.1323 209.06L86.6132 197.651H304.351L313.832 209.06H77.1323Z" fill="#A3E635"/>
<path d="M310.779 207.775H80.3462L87.738 198.937H303.387L310.779 207.775Z" fill="#3F6212"/>
<path opacity="0.6" d="M303.387 198.937H87.7383V207.936H303.387V198.937Z" fill="#1F1E21"/>
<path d="M341.15 112.485L263.535 200.865L257.268 207.936H127.268L119.234 200.865L107.343 190.42L103.325 186.885L103.165 186.724C103.165 186.724 103.165 186.724 103.004 186.564C102.843 186.403 102.683 186.242 102.522 186.082C102.361 185.921 102.2 185.6 102.04 185.439C102.04 185.439 102.04 185.278 101.879 185.278C101.718 185.117 101.558 184.957 101.558 184.635C101.397 184.475 101.397 184.153 101.236 183.993C101.236 183.832 101.076 183.671 101.076 183.511C101.076 183.35 100.915 183.189 100.915 183.028C100.111 180.297 100.594 177.244 102.683 174.994L237.664 21.3721C237.825 21.2114 238.146 20.89 238.307 20.7293C239.271 19.9258 240.235 19.2831 241.36 18.9617C243.288 18.3189 245.377 18.4796 247.306 19.2831C247.788 19.4438 248.109 19.7651 248.591 19.9258C248.912 20.0865 249.234 20.2472 249.395 20.5686L253.412 24.1038L340.346 100.593L340.507 100.754C340.668 100.915 340.989 101.236 341.15 101.397C341.311 101.557 341.471 101.879 341.632 102.04C341.793 102.2 341.953 102.522 342.114 102.682C342.275 103.004 342.435 103.325 342.596 103.646C342.757 104.129 342.917 104.45 343.078 104.932C343.56 107.664 342.917 110.396 341.15 112.485Z" fill="#A3E635"/>
<path d="M341.15 112.485L263.535 200.865L257.268 207.936H190.742L190.26 200.865L189.296 185.117L188.974 181.1L186.082 135.946C185.278 122.126 195.723 110.235 209.382 109.431L254.537 106.539L258.554 106.218L340.507 100.915C340.668 101.075 340.989 101.397 341.15 101.557C341.31 101.718 341.471 102.04 341.632 102.2C341.792 102.361 341.953 102.682 342.114 102.843C342.275 103.164 342.435 103.486 342.596 103.807C342.757 104.289 342.917 104.611 343.078 105.093C343.56 107.664 342.917 110.396 341.15 112.485Z" fill="#88CC22"/>
<path opacity="0.2" d="M249.395 20.5686C245.859 17.5154 240.717 17.8368 237.664 21.3721L102.522 174.994C99.4688 178.529 99.7902 183.671 103.325 186.724L107.343 190.26L236.218 182.064C251.162 181.1 262.571 168.245 261.607 153.14L253.412 24.2645L249.395 20.5686Z" fill="#869D5E"/>
<path d="M237.503 21.3721L102.361 174.994C99.4686 178.368 99.6293 183.511 102.843 186.564L233.968 178.208C247.788 177.244 258.233 165.513 257.268 151.693L248.912 20.5686C245.538 17.6762 240.556 17.9975 237.503 21.3721Z" fill="#BEF264"/>
<path d="M241.038 26.8355L146.391 134.499C145.587 135.463 144.302 135.463 143.338 134.66C142.373 133.857 142.373 132.571 143.177 131.607L237.825 23.9431C238.628 22.9789 239.914 22.9789 240.878 23.7824C241.842 24.5858 241.842 25.8714 241.038 26.8355Z" fill="#A3E635"/>
<path opacity="0.6" d="M263.375 200.705L257.108 207.775H127.268L119.234 200.705H263.375Z" fill="#0A0D06"/>
<path d="M146.551 112.645L147.837 82.917C154.907 78.5783 161.013 72.1506 164.87 63.9553C175.315 41.7798 165.834 15.2656 143.659 4.82058C121.483 -5.46372 94.969 4.01712 84.524 26.1926C74.079 48.3682 83.5598 74.8824 105.735 85.3274C111.038 87.8984 116.502 89.184 121.965 89.5054L143.819 113.609C144.784 114.573 146.551 113.931 146.551 112.645Z" fill="#BD6805"/>
<path d="M166.959 89.9876H12.0519C5.30284 89.9876 0 84.5241 0 77.9357V12.0519C0 5.30285 5.46354 0 12.0519 0H166.799C173.548 0 178.85 5.46354 178.85 12.0519V77.775C179.011 84.5241 173.548 89.9876 166.959 89.9876Z" fill="#D97706"/>
<path opacity="0.4" d="M177.404 6.267C175.637 5.30284 173.708 4.82077 171.619 4.82077H16.8727C10.1236 4.82077 4.82077 10.2843 4.82077 16.8727V82.5958C4.82077 84.6848 5.30284 86.7738 6.267 88.3807C2.57107 86.2917 0 82.4351 0 77.775V12.0519C0 5.46354 5.46354 0 12.0519 0H166.799C171.459 0 175.476 2.57107 177.404 6.267Z" fill="#F1F5F8"/>
<path d="M13.48 22H33.88V28H26.98V64H20.38V28H13.48V22ZM43.3867 64H36.7867V22H43.3867V40H50.8867V22H57.6067V64H50.8867V46H43.3867V64ZM83.7522 64H77.0922L75.9522 56.38H67.8522L66.7122 64H60.6522L67.3722 22H77.0322L83.7522 64ZM68.6922 50.68H75.0522L71.8722 29.44L68.6922 50.68ZM92.7058 33.58V64H86.7658V22H95.0458L101.826 47.14V22H107.706V64H100.926L92.7058 33.58ZM121.071 47.26L119.031 51.1V64H112.431V22H119.031V40.3L127.671 22H134.271L125.091 40.72L134.271 64H127.491L121.071 47.26ZM136.142 32.08C136.142 28.68 136.942 26.08 138.542 24.28C140.182 22.44 142.622 21.52 145.862 21.52C149.102 21.52 151.522 22.44 153.122 24.28C154.762 26.08 155.582 28.68 155.582 32.08V33.4H149.342V31.66C149.342 30.14 149.042 29.08 148.442 28.48C147.882 27.84 147.082 27.52 146.042 27.52C145.002 27.52 144.182 27.84 143.582 28.48C143.022 29.08 142.742 30.14 142.742 31.66C142.742 33.1 143.062 34.38 143.702 35.5C144.342 36.58 145.142 37.62 146.102 38.62C147.062 39.58 148.082 40.56 149.162 41.56C150.282 42.52 151.322 43.58 152.282 44.74C153.242 45.9 154.042 47.22 154.682 48.7C155.322 50.18 155.642 51.92 155.642 53.92C155.642 57.32 154.802 59.94 153.122 61.78C151.482 63.58 149.042 64.48 145.802 64.48C142.562 64.48 140.102 63.58 138.422 61.78C136.782 59.94 135.962 57.32 135.962 53.92V51.34H142.202V54.34C142.202 55.86 142.502 56.92 143.102 57.52C143.742 58.12 144.582 58.42 145.622 58.42C146.662 58.42 147.482 58.12 148.082 57.52C148.722 56.92 149.042 55.86 149.042 54.34C149.042 52.9 148.722 51.64 148.082 50.56C147.442 49.44 146.642 48.4 145.682 47.44C144.722 46.44 143.682 45.46 142.562 44.5C141.482 43.5 140.462 42.42 139.502 41.26C138.542 40.1 137.742 38.78 137.102 37.3C136.462 35.82 136.142 34.08 136.142 32.08ZM160.263 54.7L159.423 39.52V22H166.023V39.52L165.183 54.7H160.263ZM165.903 57.64V64H159.543V57.64H165.903Z" fill="#F1F5F8"/>
</svg>
